<?xml version="1.0" encoding="UTF-8" standalone="no"?>
<svg
   xmlns:ooo="http://xml.openoffice.org/svg/export"
   xmlns:dc="http://purl.org/dc/elements/1.1/"
   xmlns:cc="http://creativecommons.org/ns#"
   xmlns:rdf="http://www.w3.org/1999/02/22-rdf-syntax-ns#"
   xmlns:svg="http://www.w3.org/2000/svg"
   xmlns="http://www.w3.org/2000/svg"
   style="fill-rule:evenodd;stroke-width:28.22200012;stroke-linejoin:round"
   id="svg204"
   xml:space="preserve"
   preserveAspectRatio="xMidYMid"
   viewBox="9700 7526 2469 2407"
   height="24.07mm"
   width="24.690001mm"
   version="1.2"><metadata
     id="metadata208"><rdf:RDF><cc:Work
         rdf:about=""><dc:format>image/svg+xml</dc:format><dc:type
           rdf:resource="http://purl.org/dc/dcmitype/StillImage" /><dc:title></dc:title></cc:Work></rdf:RDF></metadata><defs
     id="defs135"
     class="ClipPathGroup"><clipPath
       clipPathUnits="userSpaceOnUse"
       id="presentation_clip_path"><rect
         id="rect129"
         height="2406"
         width="2467"
         y="7526"
         x="9700" /></clipPath><clipPath
       clipPathUnits="userSpaceOnUse"
       id="presentation_clip_path_shrink"><rect
         id="rect132"
         height="2402"
         width="2463"
         y="7528"
         x="9702" /></clipPath></defs><defs
     id="defs139"
     class="TextShapeIndex"><g
       id="g137"
       ooo:id-list="id3 id4 id5"
       ooo:slide="id1" /></defs><defs
     id="defs171"
     class="EmbeddedBulletChars"><g
       transform="matrix(4.8828125e-4,0,0,-4.8828125e-4,0,0)"
       id="bullet-char-template(57356)"><path
         id="path141"
         d="M 580,1141 1163,571 580,0 -4,571 Z" /></g><g
       transform="matrix(4.8828125e-4,0,0,-4.8828125e-4,0,0)"
       id="bullet-char-template(57354)"><path
         id="path144"
         d="M 8,1128 H 1137 V 0 H 8 Z" /></g><g
       transform="matrix(4.8828125e-4,0,0,-4.8828125e-4,0,0)"
       id="bullet-char-template(10146)"><path
         id="path147"
         d="M 174,0 602,739 174,1481 1456,739 Z M 1358,739 309,1346 659,739 Z" /></g><g
       transform="matrix(4.8828125e-4,0,0,-4.8828125e-4,0,0)"
       id="bullet-char-template(10132)"><path
         id="path150"
         d="M 2015,739 1276,0 H 717 l 543,543 H 174 v 393 h 1086 l -543,545 h 557 z" /></g><g
       transform="matrix(4.8828125e-4,0,0,-4.8828125e-4,0,0)"
       id="bullet-char-template(10007)"><path
         id="path153"
         d="m 0,-2 c -7,16 -16,29 -25,39 l 381,530 c -94,256 -141,385 -141,387 0,25 13,38 40,38 9,0 21,-2 34,-5 21,4 42,12 65,25 l 27,-13 111,-251 280,301 64,-25 24,25 c 21,-10 41,-24 62,-43 C 886,937 835,863 770,784 769,783 710,716 594,584 L 774,223 c 0,-27 -21,-55 -63,-84 l 16,-20 C 717,90 699,76 672,76 641,76 570,178 457,381 L 164,-76 c -22,-34 -53,-51 -92,-51 -42,0 -63,17 -64,51 -7,9 -10,24 -10,44 0,9 1,19 2,30 z" /></g><g
       transform="matrix(4.8828125e-4,0,0,-4.8828125e-4,0,0)"
       id="bullet-char-template(10004)"><path
         id="path156"
         d="M 285,-33 C 182,-33 111,30 74,156 52,228 41,333 41,471 c 0,78 14,145 41,201 34,71 87,106 158,106 53,0 88,-31 106,-94 l 23,-176 c 8,-64 28,-97 59,-98 l 735,706 c 11,11 33,17 66,17 42,0 63,-15 63,-46 V 965 c 0,-36 -10,-64 -30,-84 L 442,47 C 390,-6 338,-33 285,-33 Z" /></g><g
       transform="matrix(4.8828125e-4,0,0,-4.8828125e-4,0,0)"
       id="bullet-char-template(9679)"><path
         id="path159"
         d="M 813,0 C 632,0 489,54 383,161 276,268 223,411 223,592 c 0,181 53,324 160,431 106,107 249,161 430,161 179,0 323,-54 432,-161 108,-107 162,-251 162,-431 0,-180 -54,-324 -162,-431 C 1136,54 992,0 813,0 Z" /></g><g
       transform="matrix(4.8828125e-4,0,0,-4.8828125e-4,0,0)"
       id="bullet-char-template(8226)"><path
         id="path162"
         d="m 346,457 c -73,0 -137,26 -191,78 -54,51 -81,114 -81,188 0,73 27,136 81,188 54,52 118,78 191,78 73,0 134,-26 185,-79 51,-51 77,-114 77,-187 0,-75 -25,-137 -76,-188 -50,-52 -112,-78 -186,-78 z" /></g><g
       transform="matrix(4.8828125e-4,0,0,-4.8828125e-4,0,0)"
       id="bullet-char-template(8211)"><path
         id="path165"
         d="M -4,459 H 1135 V 606 H -4 Z" /></g><g
       transform="matrix(4.8828125e-4,0,0,-4.8828125e-4,0,0)"
       id="bullet-char-template(61548)"><path
         id="path168"
         d="m 173,740 c 0,163 58,303 173,419 116,115 255,173 419,173 163,0 302,-58 418,-173 116,-116 174,-256 174,-419 0,-163 -58,-303 -174,-418 C 1067,206 928,148 765,148 601,148 462,206 346,322 231,437 173,577 173,740 Z" /></g></defs><defs
     id="defs173"
     class="TextEmbeddedBitmaps" /><rect
     class="BoundingBox"
     x="9700"
     y="7526"
     width="2469"
     height="2407"
     id="rect175"
     style="fill:none;stroke:none" /><path
     d="m 9804,7629 h 2261 V 9829 H 9804 Z m -103,2303 h 2467 V 7526 H 9701 Z"
     id="path177"
     style="fill:#c9c6c5;stroke:none" /><rect
     class="BoundingBox"
     x="9804"
     y="7629"
     width="2263"
     height="2201"
     id="rect182"
     style="fill:none;stroke:none" /><path
     d="m 9804,9829 h 2262 V 7629 H 9804 Z"
     id="path184"
     style="fill:#17191d;stroke:none" /><rect
     class="BoundingBox"
     x="10257"
     y="8166"
     width="1347"
     height="1051"
     id="rect189"
     style="fill:none;stroke:none" /><path
     d="m 11047,9167 c -6,-5 -9,-11 -9,-20 v -147 c 0,-4 6,-9 12,-4 69,47 149,68 226,68 112,0 159,-58 159,-123 0,-60 -30,-107 -138,-170 l -55,-29 c -157,-89 -203,-179 -203,-294 0,-156 108,-282 313,-282 92,0 153,14 191,36 8,3 9,7 9,16 v 138 c 0,6 -6,11 -12,6 -47,-30 -111,-46 -184,-46 -118,0 -157,68 -157,121 0,58 29,101 135,159 l 49,26 c 176,97 220,190 220,306 0,170 -124,288 -327,288 -90,0 -173,-17 -229,-49 z m -523,-834 h -258 c -7,0 -10,-4 -8,-14 l 18,-130 c 1,-7 5,-10 12,-10 h 643 c 10,0 13,3 14,12 l 13,130 c 1,9 -4,12 -11,12 h -259 v 863 c 0,8 -3,11 -12,11 h -140 c -9,0 -12,-3 -12,-12 z"
     id="path191"
     style="fill:#c9c6c5;stroke:none" /></svg>