<?xml version="1.0" encoding="utf-8"?>
<!-- Generator: Adobe Illustrator 24.1.0, SVG Export Plug-In . SVG Version: 6.00 Build 0)  -->
<svg version="1.1" id="Layer_1" xmlns="http://www.w3.org/2000/svg" xmlns:xlink="http://www.w3.org/1999/xlink" x="0px" y="0px"
	 viewBox="0 0 512 512" style="enable-background:new 0 0 512 512;" xml:space="preserve">
<style type="text/css">
	.st0{fill:url(#SVGID_1_);}
	.st1{fill:#FFFFFF;}
	.st2{fill:none;}
	.st3{fill:#F2F2F2;}
</style>
<g>
	<linearGradient id="SVGID_1_" gradientUnits="userSpaceOnUse" x1="425.8153" y1="470.1389" x2="111.6015" y2="73.8689">
		<stop  offset="3.370800e-02" style="stop-color:#01448A"/>
		<stop  offset="1" style="stop-color:#0377F2"/>
	</linearGradient>
	<path class="st0" d="M512,89.2C512,39.7,472.1,0,422.5,0C421.9,0,90,0,90,0v0C40,0.4,0,39.9,0,89.2C0,91,0,427,0,427h0
		c2.2,48,42,85,90,85c0,0,332,0,332.6,0c48.2,0,87.2-37,89.4-85H512C512,427,512,91,512,89.2z"/>
	<path class="st1" d="M147.5,235.3c5.7-8.1,11.3-16.2,17-24.2c17.3-24.5,34.6-49.1,51.8-73.6c0.4-0.6,0.7-1.3,1.3-1.6
		c0,1.1,0.1,2.3,0.1,3.4c0,15.1-0.7,45.2-0.7,45.2s0,23.9,0,24.6h8.7c0.7-0.7,1.3-0.6,2-0.6c11.6,0,23.3,0,34.9,0
		c4.3,0,3.7-0.2,3.7,3.8c0,2.5,0,2.5-2.5,2.5c-12.7,0-25.4,0-38.1,0.3H218v12h7.6c0.7,0.7,1.3,0.7,2,0.7c11.4,0,22.9,0,34.3,0
		c5,0,4.3-0.6,4.4,4.4c0,1.5-0.6,2-2.1,2c-5.7,0-11.5,0-17.2,0c-7.1,0-14.2,0-21.4-0.1h-7.9c0.4,1.9-0.8,1.5-1.7,1.5
		c-9.6,0-19.3,0.1-28.9,0.1c-12.5,0-25,0-37.5-0.1C148.9,235.5,148.2,235.7,147.5,235.3z"/>
	<g>
		<path class="st2" d="M48,61c128,0,256,0,384,0c0,128,0,256,0,384c-128,0-256,0-384,0C48,317,48,189,48,61z M147.5,235.3
			c-0.2,2.7-0.3,5.4,0,8.2c-0.1,0.5-0.2,0.9-0.2,1.4c0,46,0,91.9,0,137.9c0,12.5,9.8,22.1,22.2,22.1c26.9,0,53.8,0,80.7,0
			c12.3,0,24.5-1.2,36.5-4.1c39.5-9.4,67.8-32.5,84.4-69.7c9.8-22,13.5-45.2,12.7-69.2c-0.4-12.8-2.5-25.3-6.2-37.5
			c-6.9-22.2-18.5-41.4-35.9-56.8c-22.3-19.7-48.8-28.9-78.1-31.3c-12.2-1-24.4-0.5-36.6-0.6c-0.5,0-0.9,0.1-1.4,0.1
			c-2.7-0.2-5.3-0.2-8,0c-0.7,0.4-0.9,1.1-1.3,1.6c-17.3,24.5-34.6,49.1-51.8,73.6C158.8,219.1,153.2,227.2,147.5,235.3z M121,153
			c0,12.1,0,24.1,0,36c12.1,0,24,0,36,0c0-12,0-24,0-36C145,153,133,153,121,153z M190,130c0-9.8,0-19.4,0-29c-9.7,0-19.3,0-29,0
			c0,9.7,0,19.3,0,29C170.7,130,180.3,130,190,130z M120,106c-8.1,0-16,0-24,0c0,8.1,0,16,0,24c8,0,16,0,24,0
			C120,122,120,114,120,106z"/>
		<g>
			<path class="st1" d="M225.6,135.8c0.5-0.1,0.9-0.2,1.4-0.1c12.2,0.1,24.4-0.4,36.6,0.6c29.2,2.4,55.8,11.6,78.1,31.3
				c17.5,15.4,29.1,34.7,35.9,56.8c3.8,12.2,5.8,24.7,6.2,37.5c0.8,24-2.9,47.2-12.7,69.2c-16.6,37.1-44.9,60.3-84.4,69.7
				c-12,2.9-24.2,4.1-36.5,4.1c-26.9,0-53.8,0-80.7,0c-12.4,0-22.2-9.6-22.2-22.1c-0.1-46,0-91.9,0-137.9c0-0.5,0.1-0.9,0.2-1.4
				c13.2,0,26.3,0,39.5,0c0,0.7,0.1,1.4,0.1,2.2c0,23.5,0,47,0,70.5c0,11.3,9.1,20.5,20.4,20.5c18.3,0,36.6,0.1,54.8,0
				c6.7,0,12.2-2.8,16.3-8.1c3.1-4,4.3-8.6,4.3-13.6c0-36.3,0-72.6,0-108.9c0-7.8-2.9-14.1-9.5-18.5c-3.3-2.2-6.9-3.2-10.8-3.2
				c-12.3,0-24.7,0-37-0.1C225.6,168.2,225.6,152,225.6,135.8z M289.3,265.6c-0.3,2.1-0.3,4.2-0.3,6.3v13c-0.1,2.1-0.1,4.2,0.3,6.3
				c0,4.3,0,8.7,0,13c-0.3,2.1-0.4,4.2,0,6.3c0,4.3,0.2,8.7-1,13c-0.9,2.1-1.9,4.2-2.8,6.3c-5.2,8.2-12.6,12.8-22.3,13
				c-11.4,0.2-22.8,0.1-34.2,0.1c-0.6,0-1.3-0.3-1.9,0.3c0.1,0.3,0.3,0.7,0.4,1c4,7,9.9,10.9,17.9,10.9c18.1,0.1,36.2,0,54.3,0
				c12.4,0,21.2-8.8,21.2-21.3c0-36.6,0-73.2,0-109.8c0-0.7,0-1.3,0-2c-0.5-9.4-8-17.6-17.3-18.9c-4.8-0.6-9.6-0.3-14.3-0.2
				c-0.1,0-0.2,0.1,0.7,0.1v23.9c-1.1,2.1-1.1,4.2-0.7,6.3c0,4.3,0,8.7,0,13c-0.3,2.1-0.3,4.2,0,6.3
				C289.3,256.9,289.3,261.2,289.3,265.6z"/>
			<path class="st1" d="M124.5,153h29c1.9,0,3.5,1.6,3.5,3.5v29c0,1.9-1.6,3.5-3.5,3.5h-29c-1.9,0-3.5-1.6-3.5-3.5v-29
				C121,154.6,122.6,153,124.5,153z"/>
			<path class="st1" d="M186.5,130h-22c-1.9,0-3.5-1.6-3.5-3.5v-22c0-1.9,1.6-3.5,3.5-3.5h22c1.9,0,3.5,1.6,3.5,3.5v22
				C190,128.4,188.4,130,186.5,130z"/>
			<path class="st1" d="M120,109.5v17.1c0,1.9-1.5,3.5-3.5,3.5H99.5c-1.9,0-3.5-1.5-3.5-3.5v-17.1c0-1.9,1.5-3.5,3.5-3.5h17.1
				C118.5,106,120,107.5,120,109.5z"/>
		</g>
	</g>
	<path class="st3" d="M217.8,184.4c0-15.1,0-30.1-0.1-45.2c0-1.1,0-2.3-0.1-3.4c2.7-0.3,5.3-0.2,8,0c0,16.2,0,32.4,0,48.5
		c0,0,0,0.1,0,0.1C223,184.4,220.4,184.4,217.8,184.4z"/>
	<path class="st3" d="M147.5,235.3c0.7,0.4,1.4,0.2,2.1,0.2c12.5,0,25,0,37.5,0.1c0,2.6,0,5.2,0,7.9l-0.1,0c-13.2,0-26.3,0-39.5,0
		C147.3,240.7,147.3,238,147.5,235.3z"/>
	<path class="st2" d="M225.6,214.7c12.7,0,25.4,0,38.1-0.1c2.5,0,2.5,0,2.5-2.5c0-4,0.6-3.8-3.7-3.8c-11.6,0-23.3,0-34.9,0
		c-0.7,0-1.3-0.1-2-0.1c0-7.9,0-15.9-0.1-23.8c0,0,0-0.1,0-0.1c12.3,0,24.7,0.1,37,0.1c4,0,7.6,1.1,10.8,3.2
		c6.6,4.4,9.5,10.6,9.5,18.5c0,36.3,0,72.6,0,108.9c0,5-1.2,9.6-4.3,13.6c-4.1,5.3-9.6,8-16.3,8.1c-18.3,0.1-36.6,0-54.8,0
		c-11.3,0-20.4-9.2-20.4-20.5c0-23.5,0-47,0-70.5c0-0.7,0-1.4-0.1-2.2c0,0,0.1,0,0.1,0c12.2,0,24.4,0,36.6,0c1.5,0,2-0.5,1.9-2
		c-0.1-2.4,0-4.9,0-7.4c7.1,0,14.2-0.1,21.4-0.1c5.7,0,11.5,0,17.2,0c1.4,0,2.1-0.4,2.1-2c-0.1-5.1,0.6-4.4-4.4-4.4
		c-11.4,0-22.9,0-34.3,0c-0.7,0-1.3,0-2-0.1C225.6,223.3,225.6,219,225.6,214.7z M234.9,292c9.2,0,18.3,0,27.5,0
		c4.3,0,3.9,0.3,3.9-3.9c0-2.5,0-2.5-2.5-2.5c-18.7,0-37.4,0-56.1,0c-4.4,0-4-0.3-4,3.9c0,2.3,0.1,2.4,2.5,2.4
		C215.7,292,225.3,292,234.9,292z M234.8,273c9.3,0,18.6,0,27.8,0c4,0,3.6,0.4,3.6-3.7c0-1.4-1.2-2.6-2.6-2.6c-18.6,0-37.2,0-55.9,0
		c-4.8,0-4-0.2-4.1,4.2c-0.1,1.7,0.5,2.2,2.2,2.2C215.5,273,225.1,273,234.8,273z M234.9,253.3c9.2,0,18.4,0,27.7,0
		c4.1,0,3.7,0.5,3.7-3.8c0-2.4,0-2.4-2.4-2.4c-18.7,0-37.5,0-56.2,0c-4.4,0-3.9-0.7-4,4c0,1.6,0.5,2.2,2.1,2.2
		C215.5,253.2,225.2,253.3,234.9,253.3z M235,311.2c9.2,0,18.3,0,27.5,0c4.3,0,3.8,0.6,3.8-3.8c0-2.4,0-2.4-2.4-2.4
		c-18.7,0-37.4,0-56,0c-4.5,0-4-0.6-4.1,4.1c0,1.5,0.4,2.1,2,2.1C215.5,311.2,225.2,311.2,235,311.2z"/>
	<path class="st2" d="M289,246.3c0-4.3,0-8.7,0-13c3.6,0,7.2,0,10.8,0c5,0,4.2,0.5,4.3-4.3c0-1.5-0.5-2-2-2c-4.4,0.1-8.7,0-13.1,0
		c0-7.9,0-15.8,0-23.9c-0.1,0.1,0-0.1,0.1-0.1c4.8,0,9.6-0.4,14.3,0.2c9.3,1.3,16.8,9.5,17.3,18.9c0,0.7,0,1.3,0,2
		c0,36.6,0,73.2,0,109.8c0,12.5-8.8,21.3-21.2,21.3c-18.1,0-36.2,0.1-54.3,0c-8.1,0-14-4-17.9-10.9c-0.2-0.3-0.3-0.6-0.4-1
		c0.6-0.6,1.3-0.3,1.9-0.3c11.4,0,22.8,0.1,34.2-0.1c9.7-0.2,17.1-4.8,22.3-13c4.9,0,9.8,0,14.7,0c4.8,0,4.2,0.6,4.3-4.3
		c0-1.5-0.5-2-2-1.9c-4.7,0.1-9.4,0-14.1,0c1.2-4.3,1-8.6,1-13c3.7,0,7.3,0,11-0.1c4.7,0,4,0.7,4.1-4.3c0-1.5-0.5-2-2-2
		c-4.4,0.1-8.7,0-13.1,0c0-4.3,0-8.7,0-13c3.6,0,7.2,0,10.8,0c4.9,0,4.2,0.6,4.3-4.3c0-1.5-0.5-2-2-2c-4.4,0.1-8.7,0-13.1,0
		c0-4.3,0-8.7,0-13c3.6,0,7.2,0,10.8,0c4.8,0,4.2,0.7,4.3-4.3c0-1.5-0.5-2-2-2c-4.4,0.1-8.7,0-13.1,0c0-4.3,0-8.7,0-13
		c3.6,0,7.2,0,10.8,0c4.9,0,4.2,0.6,4.3-4.5c0-1-0.8-1.8-1.8-1.8C297.9,246.3,293.4,246.3,289,246.3z"/>
	<path class="st1" d="M288.2,323.5c4.7,0,9.4,0.1,14.1,0c1.5,0,2,0.4,2,1.9c-0.1,4.9,0.6,4.3-4.3,4.3c-4.9,0-9.8,0-14.7,0
		C286.3,327.7,287.3,325.6,288.2,323.5z"/>
	<path class="st1" d="M289.3,284.9c4.4,0,8.7,0.1,13.1,0c1.5,0,2,0.6,2,2c-0.1,4.9,0.6,4.3-4.3,4.3c-3.6,0-7.2,0-10.8,0
		C288.9,289.1,288.9,287,289.3,284.9z"/>
	<path class="st1" d="M289.3,226.9c4.4,0,8.7,0.1,13.1,0c1.5,0,2,0.5,2,2c-0.1,4.8,0.6,4.3-4.3,4.3c-3.6,0-7.2,0-10.8,0
		C288.9,231.1,288.9,229,289.3,226.9z"/>
	<path class="st1" d="M289.3,265.6c4.4,0,8.7,0.1,13.1,0c1.5,0,2,0.5,2,2c-0.1,5,0.5,4.3-4.3,4.3c-3.6,0-7.2,0-10.8,0
		C288.9,269.8,288.9,267.7,289.3,265.6z"/>
	<path class="st1" d="M289.3,246.3c4.4,0,8.9,0,13.3,0c1.3,0,1.8,0.4,1.8,1.8c-0.1,5.1,0.6,4.5-4.3,4.5c-3.6,0-7.2,0-10.8,0
		C288.9,250.5,288.9,248.4,289.3,246.3z"/>
	<path class="st1" d="M289.3,304.2c4.4,0,8.7,0.1,13.1,0c1.5,0,2,0.5,2,2c-0.1,4.9,0.5,4.2-4.1,4.3c-3.7,0-7.3,0-11,0.1
		C288.9,308.5,289,306.3,289.3,304.2z"/>
	<path class="st2" d="M225.6,234c0,2.5-0.1,4.9,0,7.4c0.1,1.5-0.4,2-1.9,2c-12.2-0.1-24.4,0-36.6,0c0-2.6,0-5.2,0-7.9
		c9.6,0,19.3,0,28.9-0.1c0.9,0,2.1,0.4,1.7-1.4C220.5,234,223.1,234,225.6,234z"/>
	<path class="st2" d="M225.8,184.2c0,7.9,0,15.9,0.1,23.8c-2.6,0-5.2,0-7.9,0c0-8,0-15.9,0-23.9
		C220.6,184.1,223.2,184.2,225.8,184.2z"/>
	<path class="st2" d="M225.9,215c0,4.3,0,8.7,0,13c-2.6,0-5.2,0-7.9,0c0-4.3,0-8.6,0-13C220.6,215,223.2,215,225.9,215z"/>
	<path class="st1" d="M234.9,292c-9.6,0-19.2,0-28.7,0c-2.3,0-2.5-0.1-2.5-2.4c0-4.2-0.4-3.9,4-3.9c18.7,0,37.4,0,56.1,0
		c2.5,0,2.5,0,2.5,2.5c0,4.2,0.4,3.9-3.9,3.9C253.2,292,244.1,292,234.9,292z"/>
	<path class="st1" d="M234.8,273c-9.6,0-19.3,0-28.9,0c-1.6,0-2.2-0.5-2.2-2.2c0.1-4.6-0.7-4.3,4.1-4.3c18.6,0,37.2,0,55.9,0
		c2.6,0,2.6,0.1,2.6,2.7c0,4.2,0.3,3.8-3.6,3.8C253.3,273,244.1,273,234.8,273z"/>
	<path class="st1" d="M234.9,253.3c-9.7,0-19.4,0-29.1,0c-1.7,0-2.2-0.5-2.1-2.2c0.1-4.7-0.4-4,4-4c18.7,0,37.5,0,56.2,0
		c2.4,0,2.4,0,2.4,2.4c0,4.3,0.4,3.8-3.7,3.8C253.3,253.3,244.1,253.3,234.9,253.3z"/>
	<path class="st1" d="M235,311.2c-9.8,0-19.5,0-29.3,0c-1.6,0-2.1-0.5-2-2.1c0.1-4.8-0.4-4.1,4.1-4.1c18.7,0,37.4,0,56,0
		c2.4,0,2.5,0,2.4,2.4c0,4.4,0.5,3.8-3.8,3.8C253.3,311.2,244.1,311.2,235,311.2z"/>
</g>
</svg>
