<?xml version="1.0" encoding="utf-8"?>
<!-- Generator: Adobe Illustrator 24.0.1, SVG Export Plug-In . SVG Version: 6.00 Build 0)  -->
<svg version="1.1" id="WebAuthor" xmlns="http://www.w3.org/2000/svg" xmlns:xlink="http://www.w3.org/1999/xlink" x="0px" y="0px"
	 viewBox="0 0 50 50" style="enable-background:new 0 0 50 50;" xml:space="preserve">
<style type="text/css">
	.st0{fill:url(#Pillow_1_);stroke:#AF1A03;stroke-width:0.75;}
	.st1{fill:#FFFFFF;}
	.st2{fill:#FF451D;}
</style>
<linearGradient id="Pillow_1_" gradientUnits="userSpaceOnUse" x1="25" y1="1597.4401" x2="25" y2="1549.3398" gradientTransform="matrix(1 0 0 1 0 -1548.39)">
	<stop  offset="0" style="stop-color:#BB2712"/>
	<stop  offset="1" style="stop-color:#DE4F33"/>
</linearGradient>
<path id="Pillow" class="st0" d="M10.8,1h28.4c5.4,0,9.8,4.4,9.8,9.8v28.4c0,5.4-4.4,9.8-9.8,9.8H10.8C5.4,49,1,44.6,1,39.2V10.8
	C1,5.4,5.4,1,10.8,1z"/>
<path id="Cloud" class="st1" d="M38.1,22.6c0-0.4,0-0.6,0-1c0-6.5-5.4-12-11.9-12c-5.3,0-9.7,3.6-11.3,8.3l0,0
	C8.9,17.9,4,22.7,4,28.8s4.9,10.9,10.9,10.9c0.1,0,0.4,0,0.5,0l0,0h22.2l0,0c4.7-0.1,8.5-3.8,8.5-8.6C46,26.7,42.4,23,38.1,22.6z
	 M37.5,38.5L37.5,38.5H15.4l0,0c-0.1,0-0.3,0-0.3,0c-5.4,0-9.6-4.4-9.6-9.6s4.4-9.6,9.6-9.6c0.3,0,0.6,0,0.9,0
	c1-4.6,5.3-8.1,10.2-8.1c5.8,0,10.5,4.7,10.5,10.5c0,0.8-0.1,1.7-0.3,2.3c0.4,0,0.6-0.1,1-0.1c4,0,7.3,3.2,7.3,7.3
	C44.6,35.2,41.5,38.4,37.5,38.5z"/>
<path id="WhiteStroke" class="st1" d="M27.9,13.8h-4.7l-7.6,18.7l0.2,5l3.6-3.5l1.5-3.8h8.3l1.6,4.4h5.5L27.9,13.8z M22.7,26
	l2.5-6.2l2.4,6.2H22.7z"/>
<path id="A-black_3_" d="M28.5,26.5l-3-7.7l1.4-3.4l-3.1-1.1h3.7l8,19.7h-4.3l-1.6-4.4h-8.3l1.2-3.1H28.5z"/>
<path id="Pen" class="st2" d="M23.4,14.7l-0.8,1.9l2.8,1.1l0.8-1.9L23.4,14.7z M16.2,36.5l2.7-2.6l-2.8-1.1L16.2,36.5z M16.4,32.1
	l2.8,1.1l6-14.9l-2.8-1.1L16.4,32.1z"/>
</svg>
