<?xml version="1.0" encoding="UTF-8"?>
<svg width="120px" height="30px" viewBox="0 0 120 30" version="1.1" xmlns="http://www.w3.org/2000/svg" xmlns:xlink="http://www.w3.org/1999/xlink">
    <!-- Generator: sketchtool 49.2 (51160) - http://www.bohemiancoding.com/sketch -->
    <title>E1C76654-319D-4319-8245-015955111320</title>
    <desc>Created with sketchtool.</desc>
    <defs>
        <polygon id="path-1" points="0.0124137924 0.0614482722 13.1052406 0.0614482722 13.1052406 21.0419987 0.0124137924 21.0419987"></polygon>
        <polygon id="path-3" points="0.160551715 0 49.9222729 0 49.9222729 29.7806879 0.160551715 29.7806879"></polygon>
    </defs>
    <g id="working" stroke="none" stroke-width="1" fill="none" fill-rule="evenodd">
        <g id="CDP-section-conservative" transform="translate(-800.000000, -114.000000)">
            <g id="linkedin-logo" transform="translate(799.999991, 114.200000)">
                <g id="Group-3" transform="translate(0.000000, 4.344827)">
                    <mask id="mask-2" fill="white">
                        <use xlink:href="#path-1"></use>
                    </mask>
                    <g id="Clip-2"></g>
                    <polyline id="Fill-1" fill="#1A1919" mask="url(#mask-2)" points="0 0.0614482722 4.59620662 0.0614482722 4.59620662 16.8012404 13.1052406 16.8012404 13.1052406 21.0419987 0 21.0419987 0 0.0614482722"></polyline>
                </g>
                <path d="M17.3441369,4.0953101 C18.7584816,4.0953101 19.9067574,5.24358589 19.9067574,6.65668926 C19.9067574,8.07248228 18.7584816,9.21744773 17.3441369,9.21744773 C15.9312404,9.21744773 14.7829646,8.07248228 14.7829646,6.65668926 C14.7829646,5.24358589 15.9312404,4.0953101 17.3441369,4.0953101 Z M15.1353094,25.3812399 L19.5529644,25.3812399 L19.5529644,11.1631028 L15.1353094,11.1631028 L15.1353094,25.3812399 Z" id="Fill-4" fill="#1A1919"></path>
                <polyline id="Fill-5" fill="#1A1919" points="38.0182736 4.40482732 42.4342733 4.40482732 42.4342733 16.9442059 47.4366179 11.156689 52.8504796 11.156689 47.0569627 17.7397231 52.7294451 25.3868261 47.178411 25.3868261 42.4915837 18.3583437 42.4342733 18.3583437 42.4342733 25.3868261 38.0182736 25.3868261 38.0182736 4.40482732"></polyline>
                <path d="M21.9959987,11.1649649 L26.2363433,11.1649649 L26.2363433,13.1085509 L26.2955157,13.1085509 C26.8839294,11.9894476 28.3272397,10.8119994 30.4766878,10.8119994 C34.9535152,10.8119994 35.777791,13.7565509 35.777791,17.58393 L35.777791,25.3812399 L31.360343,25.3812399 L31.360343,18.4682058 C31.360343,16.8184128 31.3299292,14.6989646 29.0621362,14.6989646 C26.7657915,14.6989646 26.4134467,16.4956542 26.4134467,18.3500679 L26.4134467,25.3812399 L21.9959987,25.3812399 L21.9959987,11.1649649" id="Fill-6" fill="#1A1919"></path>
                <path d="M65.8876512,22.9195848 C64.4739272,24.7162744 62.1488239,25.7480674 59.8506171,25.7480674 C55.4342036,25.7480674 51.9002038,22.8016538 51.9002038,18.2373093 C51.9002038,13.6735854 55.4342036,10.7292407 59.8506171,10.7292407 C63.9765479,10.7292407 66.5654443,13.6735854 66.5654443,18.2373093 L66.5654443,19.621654 L56.3176518,19.621654 C56.6683414,21.3004125 57.9366172,22.3899297 59.644962,22.3899297 C61.0884791,22.3899297 62.0594446,21.653378 62.7959963,20.6519988 L65.8876512,22.9195848 Z M62.1488239,16.6191714 C62.1775825,15.1466888 61.0293067,13.9096543 59.4376516,13.9096543 C57.4951,13.9096543 56.4341346,15.2348267 56.3176518,16.6191714 L62.1488239,16.6191714 Z" id="Fill-7" fill="#1A1919"></path>
                <g id="Group-11" transform="translate(67.655168, 0.000000)">
                    <mask id="mask-4" fill="white">
                        <use xlink:href="#path-3"></use>
                    </mask>
                    <g id="Clip-9"></g>
                    <path d="M15.7108956,25.378964 L11.6459993,25.378964 L11.6459993,23.4937227 L11.588689,23.4937227 C10.9092407,24.5240675 9.20255118,25.7321364 7.19958578,25.7321364 C2.95779293,25.7321364 0.160551715,22.6706883 0.160551715,18.3411713 C0.160551715,14.3654474 2.63399984,10.7139304 6.69765477,10.7139304 C8.52517191,10.7139304 10.232689,11.2139993 11.2342752,12.5983441 L11.2915855,12.5983441 L11.2915855,4.40482732 L15.7108956,4.40482732 L15.7108956,25.378964 Z M8.11013745,14.6013095 C5.90317206,14.6013095 4.57841352,16.0746197 4.57841352,18.2226196 C4.57841352,20.3743436 5.90317206,21.8447573 8.11013745,21.8447573 C10.3204132,21.8447573 11.6459993,20.3743436 11.6459993,18.2226196 C11.6459993,16.0746197 10.3204132,14.6013095 8.11013745,14.6013095 Z" id="Fill-8" fill="#1A1919" mask="url(#mask-4)"></path>
                    <path d="M47.7169627,0 L22.3274469,0 C21.1142056,0 20.1283436,0.961655115 20.1283436,2.14675849 L20.1283436,27.6434466 C20.1283436,28.8299983 21.1142056,29.7931017 22.3274469,29.7931017 L47.7169627,29.7931017 C48.9322729,29.7931017 49.9222729,28.8299983 49.9222729,27.6434466 L49.9222729,2.14675849 C49.9222729,0.961655115 48.9322729,0 47.7169627,0" id="Fill-10" fill="#006087" mask="url(#mask-4)"></path>
                </g>
                <path d="M94.4114426,4.10172389 C95.8241322,4.10172389 96.9722011,5.24979279 96.9722011,6.66310305 C96.9722011,8.07765469 95.8241322,9.22572359 94.4114426,9.22572359 C92.9952358,9.22572359 91.8488221,8.07765469 91.8488221,6.66310305 C91.8488221,5.24979279 92.9952358,4.10172389 94.4114426,4.10172389 Z M92.20096,25.3876537 L96.6200632,25.3876537 L96.6200632,11.1693097 L92.20096,11.1693097 L92.20096,25.3876537 Z" id="Fill-12" fill="#FFFFFE"></path>
                <path d="M99.3918561,11.1693097 L103.630132,11.1693097 L103.630132,13.1120682 L103.689304,13.1120682 C104.279373,11.9944131 105.720614,10.8159304 107.870476,10.8159304 C112.345235,10.8159304 113.171373,13.7608957 113.171373,17.5888955 L113.171373,25.3876537 L108.755373,25.3876537 L108.755373,18.4731713 C108.755373,16.8244128 108.725166,14.7035164 106.459235,14.7035164 C104.159787,14.7035164 103.806821,16.4995852 103.806821,18.3539989 L103.806821,25.3876537 L99.3918561,25.3876537 L99.3918561,11.1693097" id="Fill-13" fill="#FFFFFE"></path>
                <polyline id="Fill-14" fill="#1A1919" points="118.304062 24.6397227 118.544062 24.6397227 118.544062 25.3876537 118.674614 25.3876537 118.674614 24.6397227 118.9142 24.6397227 118.9142 24.509171 118.304062 24.509171 118.304062 24.6397227"></polyline>
                <polyline id="Fill-15" fill="#1A1919" points="119.762683 24.509171 119.506131 25.1538606 119.2502 24.509171 119.064614 24.509171 119.064614 25.3876537 119.194131 25.3876537 119.194131 24.7191709 119.463096 25.3876537 119.549579 25.3876537 119.818338 24.7191709 119.818338 25.3876537 119.948269 25.3876537 119.948269 24.509171 119.762683 24.509171"></polyline>
            </g>
        </g>
    </g>
</svg>